<svg width="125" height="98" viewBox="0 0 125 98" fill="none" xmlns="http://www.w3.org/2000/svg">
<path d="M2.02502 1.61499C2.02502 10.6151 3.208 19.9975 7.28141 28.1443C10.8185 35.2185 16.3038 38.527 23.9163 40.3267C34.6772 42.8708 46.3634 44.0012 57.1862 41.2543C65.2298 39.2128 79.3807 33.6804 83.1589 24.9905C85.6029 19.3692 78.3359 17.9674 74.5632 17.446C67.1744 16.4248 60.1535 22.3109 56.5678 28.3298C50.7165 38.1515 48.6403 47.1416 56.3204 56.6525C62.3032 64.0613 70.2459 70.1402 79.3867 72.9782C86.4312 75.1653 94.5661 77.3212 102.02 76.503C106.327 76.0304 109.831 73.4942 113.337 71.7414" stroke="#C31D23" stroke-width="3" stroke-linecap="round"/>
<path d="M91.0803 66.5779C99.3056 66.5779 107.61 67.6278 115.917 67.0248C117.623 66.901 119.358 66.6754 121.025 66.2906C121.046 66.2857 122.685 65.7289 122.685 65.7798C122.685 66.7698 121.909 67.1751 121.536 68.0145C117.352 77.4293 114.066 86.0511 114.066 96.4591" stroke="#C31D23" stroke-width="3" stroke-linecap="round"/>
</svg>
